<svg width="24.000000" height="24.000000" viewBox="0 0 24 24" fill="none" xmlns="http://www.w3.org/2000/svg" xmlns:xlink="http://www.w3.org/1999/xlink">
	<desc>
			Created with Pixso.
	</desc>
	<defs>
		<clipPath id="clip1_55">
			<rect id="ri:instagram-fill" rx="0.000000" width="23.000000" height="23.000000" transform="translate(0.500000 0.500000)" fill="white" fill-opacity="0"/>
		</clipPath>
	</defs>
	<rect id="ri:instagram-fill" rx="0.000000" width="23.000000" height="23.000000" transform="translate(0.500000 0.500000)" fill="#FFFFFF" fill-opacity="0"/>
	<g clip-path="url(#clip1_55)">
		<path id="Vector" d="M13.02 2C14.15 2 14.72 2 15.21 2.02L15.41 2.03C15.63 2.03 15.85 2.04 16.12 2.06C17.18 2.11 17.91 2.27 18.54 2.52C19.21 2.77 19.76 3.12 20.32 3.67C20.83 4.17 21.22 4.78 21.47 5.44C21.72 6.08 21.89 6.81 21.94 7.87C21.95 8.14 21.96 8.36 21.97 8.59L21.97 8.78C21.99 9.27 21.99 9.84 21.99 10.97L22 11.71L22 13.02C22 13.75 21.99 14.48 21.97 15.21L21.97 15.4C21.96 15.63 21.95 15.85 21.94 16.12C21.89 17.18 21.72 17.91 21.47 18.54C21.22 19.21 20.83 19.82 20.32 20.32C19.82 20.83 19.21 21.22 18.54 21.47C17.91 21.72 17.18 21.88 16.12 21.93L15.41 21.97L15.21 21.97C14.72 21.99 14.15 21.99 13.02 21.99L12.28 22L10.97 22C10.24 22 9.51 21.99 8.78 21.97L8.59 21.97C8.35 21.96 8.11 21.95 7.87 21.93C6.81 21.88 6.08 21.72 5.45 21.47C4.78 21.22 4.17 20.83 3.67 20.32C3.17 19.82 2.77 19.21 2.52 18.54C2.27 17.91 2.11 17.18 2.06 16.12L2.03 15.4L2.02 15.21C2 14.48 1.99 13.75 2 13.02L2 10.97C1.99 10.24 2 9.51 2.02 8.78L2.02 8.59C2.03 8.36 2.04 8.14 2.05 7.87C2.1 6.81 2.27 6.08 2.52 5.44C2.77 4.78 3.17 4.17 3.68 3.67C4.17 3.16 4.78 2.77 5.45 2.52C6.08 2.27 6.81 2.11 7.87 2.06C8.14 2.04 8.36 2.03 8.59 2.03L8.78 2.02C9.51 2 10.24 1.99 10.97 2L13.02 2ZM12 7C10.67 7 9.4 7.52 8.46 8.46C7.52 9.4 7 10.67 7 12C7 13.32 7.52 14.59 8.46 15.53C9.4 16.47 10.67 17 12 17C13.32 17 14.59 16.47 15.53 15.53C16.47 14.59 17 13.32 17 12C17 10.67 16.47 9.4 15.53 8.46C14.59 7.52 13.32 7 12 7ZM12 9C12.39 9 12.78 9.07 13.14 9.22C13.51 9.37 13.84 9.59 14.12 9.87C14.4 10.15 14.62 10.48 14.77 10.85C14.92 11.21 15 11.6 15 11.99C15 12.39 14.92 12.78 14.77 13.14C14.62 13.51 14.4 13.84 14.12 14.12C13.84 14.39 13.51 14.62 13.14 14.77C12.78 14.92 12.39 15 12 15C11.2 15 10.44 14.68 9.87 14.12C9.31 13.55 9 12.79 9 12C9 11.2 9.31 10.44 9.87 9.87C10.44 9.31 11.2 9 12 9L12 9ZM17.25 5.5C16.91 5.5 16.6 5.63 16.36 5.86C16.13 6.1 16 6.41 16 6.75C16 7.08 16.13 7.39 16.36 7.63C16.6 7.86 16.91 8 17.25 8C17.58 8 17.9 7.86 18.13 7.63C18.36 7.39 18.5 7.08 18.5 6.75C18.5 6.41 18.36 6.1 18.13 5.86C17.9 5.63 17.58 5.5 17.25 5.5Z" fill="#4470FE" fill-opacity="1.000000" fill-rule="nonzero"/>
	</g>
</svg>
