<svg width="24.000000" height="24.000000" viewBox="0 0 24 24" fill="none" xmlns="http://www.w3.org/2000/svg" xmlns:xlink="http://www.w3.org/1999/xlink">
	<desc>
			Created with Pixso.
	</desc>
	<defs>
		<clipPath id="clip1_61">
			<rect id="ri:linkedin-fill" rx="0.000000" width="23.000000" height="23.000000" transform="translate(0.500000 0.500000)" fill="white" fill-opacity="0"/>
		</clipPath>
	</defs>
	<rect id="ri:linkedin-fill" rx="0.000000" width="23.000000" height="23.000000" transform="translate(0.500000 0.500000)" fill="#FFFFFF" fill-opacity="0"/>
	<g clip-path="url(#clip1_61)">
		<path id="Vector" d="M6.93 5C6.93 5.53 6.72 6.03 6.35 6.41C5.97 6.78 5.46 6.99 4.93 6.99C4.4 6.99 3.89 6.78 3.52 6.41C3.15 6.03 2.93 5.52 2.93 4.99C2.94 4.46 3.15 3.95 3.52 3.58C3.9 3.2 4.41 2.99 4.94 2.99C5.47 2.99 5.97 3.21 6.35 3.58C6.72 3.96 6.94 4.46 6.93 5ZM7 8.47L3 8.47L3 21L7 21L7 8.47ZM13.31 8.47L9.33 8.47L9.33 21L13.27 21L13.27 14.42C13.27 10.77 18.04 10.42 18.04 14.42L18.04 21L22 21L22 13.07C22 6.89 14.93 7.13 13.27 10.15L13.31 8.47Z" fill="#4470FE" fill-opacity="1.000000" fill-rule="nonzero"/>
	</g>
</svg>
