<svg width="32.000000" height="32.000000" viewBox="0 0 32 32" fill="none" xmlns="http://www.w3.org/2000/svg" xmlns:xlink="http://www.w3.org/1999/xlink">
	<desc>
			Created with Pixso.
	</desc>
	<defs>
		<clipPath id="clip1_107">
			<rect id="solar:translation-line-duotone" rx="0.000000" width="30.666666" height="30.666666" transform="translate(0.666667 0.666667)" fill="white" fill-opacity="0"/>
		</clipPath>
	</defs>
	<rect id="solar:translation-line-duotone" rx="0.000000" width="30.666666" height="30.666666" transform="translate(0.666667 0.666667)" fill="#FFFFFF" fill-opacity="0"/>
	<g clip-path="url(#clip1_107)">
		<g opacity="0.400000">
			<path id="Vector" d="M25.52 6.66C27.96 9.15 29.33 12.5 29.33 16C29.33 17.74 28.99 19.48 28.32 21.09C27.65 22.71 26.67 24.18 25.43 25.41M6.66 25.52C5.39 24.28 4.39 22.8 3.7 21.16C3.01 19.53 2.66 17.77 2.66 16C2.66 14.24 3 12.51 3.68 10.89C4.35 9.27 5.33 7.79 6.58 6.56" stroke="#4470FE" stroke-opacity="1.000000" stroke-width="2.000000" stroke-linejoin="round" stroke-linecap="round"/>
		</g>
		<g opacity="0.700000">
			<path id="Vector" d="M21.71 10.72C23.12 12.07 24 13.93 24 15.97C24 18.04 23.1 19.91 21.66 21.27M10.4 21.33C8.91 19.97 8 18.07 8 15.97C8 13.9 8.89 12.02 10.34 10.66" stroke="#4470FE" stroke-opacity="1.000000" stroke-width="2.000000" stroke-linejoin="round" stroke-linecap="round"/>
		</g>
		<path id="Vector" d="M16 18.66C14.52 18.66 13.33 17.47 13.33 16C13.33 14.52 14.52 13.33 16 13.33C17.47 13.33 18.66 14.52 18.66 16C18.66 17.47 17.47 18.66 16 18.66Z" stroke="#4470FE" stroke-opacity="1.000000" stroke-width="2.000000"/>
	</g>
</svg>
