<svg width="32.000000" height="32.000000" viewBox="0 0 32 32" fill="none" xmlns="http://www.w3.org/2000/svg" xmlns:xlink="http://www.w3.org/1999/xlink">
	<desc>
			Created with Pixso.
	</desc>
	<defs>
		<clipPath id="clip1_124">
			<rect id="solar:verified-check-line-duotone" rx="0.000000" width="30.666666" height="30.666666" transform="translate(0.666667 0.666667)" fill="white" fill-opacity="0"/>
		</clipPath>
	</defs>
	<rect id="solar:verified-check-line-duotone" rx="0.000000" width="30.666666" height="30.666666" transform="translate(0.666667 0.666667)" fill="#FFFFFF" fill-opacity="0"/>
	<g clip-path="url(#clip1_124)">
		<g opacity="0.500000">
			<path id="Vector" d="M14.56 4.03C15.01 3.82 15.5 3.71 15.99 3.71C16.49 3.71 16.98 3.82 17.43 4.03C17.83 4.22 18.2 4.54 18.95 5.18C19.25 5.44 19.4 5.56 19.56 5.67C19.93 5.92 20.34 6.09 20.77 6.17C20.96 6.21 21.16 6.23 21.55 6.26C22.53 6.34 23.03 6.38 23.44 6.52C23.91 6.69 24.33 6.95 24.68 7.31C25.04 7.66 25.3 8.08 25.47 8.55C25.62 8.96 25.65 9.46 25.73 10.44C25.76 10.83 25.78 11.03 25.82 11.22C25.9 11.65 26.07 12.06 26.32 12.43C26.42 12.59 26.55 12.74 26.81 13.04C27.45 13.79 27.77 14.16 27.96 14.56C28.17 15.01 28.28 15.5 28.28 15.99C28.28 16.49 28.17 16.98 27.96 17.43C27.77 17.82 27.45 18.2 26.81 18.95C26.63 19.15 26.47 19.35 26.32 19.56C26.07 19.93 25.9 20.34 25.82 20.77C25.78 20.96 25.76 21.16 25.73 21.55C25.65 22.53 25.62 23.03 25.47 23.44C25.3 23.91 25.04 24.33 24.68 24.68C24.33 25.03 23.91 25.3 23.44 25.47C23.03 25.62 22.53 25.65 21.55 25.73C21.16 25.76 20.96 25.78 20.77 25.82C20.34 25.9 19.93 26.07 19.56 26.32C19.35 26.47 19.15 26.63 18.95 26.81C18.2 27.45 17.83 27.77 17.43 27.96C16.98 28.17 16.49 28.28 16 28.28C15.5 28.28 15.01 28.17 14.56 27.96C14.16 27.77 13.79 27.45 13.04 26.81C12.84 26.63 12.64 26.47 12.43 26.32C12.06 26.07 11.65 25.9 11.22 25.82C10.96 25.77 10.7 25.74 10.44 25.73C9.46 25.65 8.96 25.61 8.55 25.47C8.08 25.3 7.66 25.03 7.31 24.68C6.95 24.33 6.69 23.91 6.52 23.44C6.38 23.03 6.34 22.53 6.26 21.55C6.24 21.29 6.22 21.03 6.17 20.77C6.09 20.34 5.92 19.93 5.67 19.56C5.57 19.4 5.44 19.25 5.18 18.95C4.54 18.2 4.22 17.82 4.03 17.43C3.82 16.98 3.71 16.49 3.71 15.99C3.71 15.5 3.82 15.01 4.03 14.56C4.22 14.16 4.54 13.79 5.18 13.04C5.44 12.74 5.57 12.59 5.67 12.43C5.92 12.06 6.09 11.65 6.17 11.22C6.21 11.03 6.23 10.83 6.26 10.44C6.34 9.46 6.38 8.96 6.52 8.55C6.69 8.08 6.96 7.66 7.31 7.31C7.66 6.95 8.09 6.69 8.55 6.52C8.97 6.38 9.46 6.34 10.44 6.26C10.84 6.23 11.03 6.21 11.22 6.17C11.65 6.09 12.06 5.92 12.43 5.67C12.59 5.56 12.74 5.44 13.04 5.18C13.79 4.54 14.16 4.22 14.56 4.03Z" stroke="#4470FE" stroke-opacity="1.000000" stroke-width="2.000000"/>
		</g>
		<path id="Vector" d="M11.33 16.66L14 19.33L20.66 12.66" stroke="#4470FE" stroke-opacity="1.000000" stroke-width="2.000000" stroke-linejoin="round" stroke-linecap="round"/>
	</g>
</svg>
