<svg width="32.000000" height="32.000000" viewBox="0 0 32 32" fill="none" xmlns="http://www.w3.org/2000/svg" xmlns:xlink="http://www.w3.org/1999/xlink">
	<desc>
			Created with Pixso.
	</desc>
	<defs>
		<clipPath id="clip1_116">
			<rect id="solar:pie-chart-line-duotone" rx="0.000000" width="30.666666" height="30.666666" transform="translate(0.666667 0.666667)" fill="white" fill-opacity="0"/>
		</clipPath>
	</defs>
	<rect id="solar:pie-chart-line-duotone" rx="0.000000" width="30.666666" height="30.666666" transform="translate(0.666667 0.666667)" fill="#FFFFFF" fill-opacity="0"/>
	<g clip-path="url(#clip1_116)">
		<g opacity="0.500000">
			<path id="Vector" d="M26.66 20.73C25.88 23.22 24.32 25.4 22.21 26.95C20.1 28.49 17.56 29.33 14.94 29.33C11.68 29.33 8.56 28.03 6.26 25.73C3.96 23.43 2.66 20.31 2.66 17.05C2.66 14.43 3.5 11.89 5.04 9.78C6.59 7.67 8.77 6.11 11.26 5.33" stroke="#4470FE" stroke-opacity="1.000000" stroke-width="2.000000" stroke-linecap="round"/>
		</g>
		<path id="Vector" d="M25.34 6.65C23.51 4.81 21.23 3.48 18.73 2.78C16.54 2.17 14.66 4.07 14.66 6.34L14.66 15.27C14.66 16.4 15.58 17.33 16.72 17.33L25.65 17.33C27.92 17.33 29.82 15.45 29.21 13.26C28.51 10.76 27.18 8.48 25.34 6.65Z" stroke="#4470FE" stroke-opacity="1.000000" stroke-width="2.000000"/>
	</g>
</svg>
