<svg width="32.000000" height="32.000000" viewBox="0 0 32 32" fill="none" xmlns="http://www.w3.org/2000/svg" xmlns:xlink="http://www.w3.org/1999/xlink">
	<desc>
			Created with Pixso.
	</desc>
	<defs>
		<clipPath id="clip1_132">
			<rect id="solar:shield-check-line-duotone" rx="0.000000" width="30.666666" height="30.666666" transform="translate(0.666667 0.666667)" fill="white" fill-opacity="0"/>
		</clipPath>
	</defs>
	<rect id="solar:shield-check-line-duotone" rx="0.000000" width="30.666666" height="30.666666" transform="translate(0.666667 0.666667)" fill="#FFFFFF" fill-opacity="0"/>
	<g clip-path="url(#clip1_132)">
		<g opacity="0.500000">
			<path id="Vector" d="M4.5 6.77C5 6.06 7.01 5.37 11.02 4L11.78 3.73C13.87 3.02 14.91 2.66 16 2.66C17.08 2.66 18.12 3.02 20.21 3.73L20.98 4C24.98 5.37 26.99 6.06 27.49 6.77C28 7.49 28 9.62 28 13.88L28 15.98C28 23.5 22.34 27.15 18.8 28.7C17.84 29.12 17.36 29.33 16 29.33C14.64 29.33 14.16 29.12 13.19 28.7C9.65 27.15 4 23.5 4 15.98L4 13.88C4 9.62 4 7.49 4.5 6.77Z" stroke="#4470FE" stroke-opacity="1.000000" stroke-width="2.000000"/>
		</g>
		<path id="Vector" d="M12.66 16.53L14.57 18.66L19.33 13.33" stroke="#4470FE" stroke-opacity="1.000000" stroke-width="2.000000" stroke-linejoin="round" stroke-linecap="round"/>
	</g>
</svg>
